<svg xmlns="http://www.w3.org/2000/svg" viewBox="0 0 800 500"><defs><linearGradient id="bg" x1="0" y1="0" x2="1" y2="1"><stop stop-color="#163d20"/><stop offset="1" stop-color="#d06a0b"/></linearGradient></defs><rect width="800" height="500" rx="34" fill="url(#bg)"/><g stroke="#fff" stroke-width="7" stroke-linejoin="round"><path d="M160 350l70-170 65 22-70 170z" fill="#f19a32"/><path d="M218 183c-25-42-5-72 25-91 18 40 8 67-25 91z" fill="#51a34a"/><path d="M315 350l30-170 105 0 20 170z" fill="#e4c48b"/><path d="M400 178c-22-39-4-65 27-85 17 39 5 65-27 85z" fill="#58a74d"/><circle cx="555" cy="290" r="72" fill="#e74632"/><path d="M515 225c-14-44 13-67 48-82 14 39-2 68-48 82z" fill="#55a54b"/><path d="M570 212c32-32 63-28 87-10-20 31-48 39-87 10z" fill="#4b9b48"/><path d="M655 365c-45-34-43-91 4-113 47 23 49 78-4 113z" fill="#4ca44b"/><path d="M660 260c-12-42 12-65 42-78 13 37-1 62-42 78z" fill="#65b453"/></g><text x="400" y="455" font-family="Arial,sans-serif" font-weight="800" font-size="42" fill="#fff" text-anchor="middle">LEGUMES</text></svg>